<svg width="3715.804" height="576.006" viewBox="0 0 1857.902 288.003" xmlns="http://www.w3.org/2000/svg"><g id="svgGroup" stroke-linecap="round" fill-rule="evenodd" font-size="9pt" stroke="#000" stroke-width="0" fill="#ffffff" style="stroke:#000;stroke-width:0;fill:#ffffff"><path d="M 1384.501 47.101 L 1392.901 36.301 C 1397.401 30.301 1396.801 22.201 1390.201 18.001 A 105.033 105.033 0 0 0 1386.622 15.887 C 1379.143 11.667 1368.676 6.97 1355.898 4.581 A 92.411 92.411 0 0 0 1338.901 3.001 C 1312.275 3.001 1291.977 12.728 1280.499 28.227 A 55.137 55.137 0 0 0 1269.901 61.501 C 1269.901 93.901 1291.801 113.101 1328.101 129.901 C 1346.653 138.605 1357.512 145.734 1361.61 154.895 A 22.154 22.154 0 0 1 1363.501 164.101 A 23.412 23.412 0 0 1 1348.887 186.634 C 1345.806 187.912 1342.241 188.718 1338.197 188.939 A 42.12 42.12 0 0 1 1335.901 189.001 A 50.506 50.506 0 0 1 1314.492 183.809 C 1308.722 181.09 1303.675 177.682 1299.705 174.553 A 85.089 85.089 0 0 1 1297.201 172.501 C 1291.501 167.701 1284.001 167.701 1278.901 173.401 L 1269.301 183.901 A 11.675 11.675 0 0 0 1266.562 189.574 C 1265.892 193.389 1267.177 197.468 1270.501 200.401 C 1280.667 209.696 1301.803 225.461 1333.636 226.452 A 101.671 101.671 0 0 0 1336.801 226.501 A 81.962 81.962 0 0 0 1367.723 220.821 A 61.616 61.616 0 0 0 1407.001 162.301 C 1407.001 129.056 1385.645 111.417 1351.305 95.26 A 347.011 347.011 0 0 0 1346.401 93.001 A 187.002 187.002 0 0 1 1340.1 90.002 C 1321.488 80.687 1313.401 72.047 1313.401 61.201 A 19.445 19.445 0 0 1 1325.933 42.684 C 1328.741 41.489 1331.997 40.69 1335.678 40.365 A 43.476 43.476 0 0 1 1339.501 40.201 C 1351.072 40.201 1360.52 44.449 1366.344 48.2 A 45.37 45.37 0 0 1 1367.401 48.901 A 19.489 19.489 0 0 0 1370.438 50.392 C 1375.542 52.351 1380.751 51.601 1384.501 47.101 Z M 184.201 222.001 L 202.501 222.001 A 10.432 10.432 0 0 0 212.995 211.851 A 11.177 11.177 0 0 0 213.001 211.501 L 213.001 137.401 A 16.236 16.236 0 0 1 213.127 135.338 C 213.394 133.257 214.126 131.176 215.701 129.601 A 40.762 40.762 0 0 1 222.176 122.681 C 224.974 120.354 227.917 118.685 230.948 117.711 A 20.684 20.684 0 0 1 237.301 116.701 C 248.034 116.701 254.778 122.285 255.53 134.705 A 39.622 39.622 0 0 1 255.601 137.101 L 255.601 211.501 A 10.592 10.592 0 0 0 257.85 218.16 C 259.592 220.349 262.223 221.766 265.307 221.974 A 11.787 11.787 0 0 0 266.101 222.001 L 284.401 222.001 A 10.105 10.105 0 0 0 294.483 213.155 A 11.607 11.607 0 0 0 294.601 211.501 L 294.601 123.001 A 56.847 56.847 0 0 0 291.707 104.295 C 286.741 90.021 275.608 81.243 260.03 79.11 A 56.966 56.966 0 0 0 252.301 78.601 A 49.173 49.173 0 0 0 238.841 80.366 A 47.03 47.03 0 0 0 219.301 91.801 C 217.079 93.776 214.247 93.11 213.314 90.806 A 4.523 4.523 0 0 1 213.001 89.101 L 213.001 10.201 C 213.001 4.501 208.201 0.001 202.501 0.001 L 184.201 0.001 A 10.108 10.108 0 0 0 174.021 9.539 A 10.725 10.725 0 0 0 174.001 10.201 L 174.001 211.501 A 10.752 10.752 0 0 0 176.044 217.92 A 10.021 10.021 0 0 0 184.201 222.001 Z M 1111.201 208.201 L 1111.801 214.201 A 9.653 9.653 0 0 0 1119.96 221.868 A 11.336 11.336 0 0 0 1121.701 222.001 L 1136.401 222.001 A 10.592 10.592 0 0 0 1143.06 219.751 C 1145.249 218.009 1146.666 215.378 1146.874 212.294 A 11.787 11.787 0 0 0 1146.901 211.501 L 1146.901 10.201 A 10.105 10.105 0 0 0 1138.054 0.118 A 11.607 11.607 0 0 0 1136.401 0.001 L 1118.101 0.001 A 10.108 10.108 0 0 0 1107.921 9.539 A 10.725 10.725 0 0 0 1107.901 10.201 L 1107.901 89.101 C 1107.901 92.704 1104.572 94.258 1101.7 92.582 A 5.799 5.799 0 0 1 1101.001 92.101 C 1092.513 83.906 1080.885 78.852 1066.115 78.61 A 68.067 68.067 0 0 0 1065.001 78.601 A 68.026 68.026 0 0 0 998.977 133.923 A 84.606 84.606 0 0 0 996.901 152.701 A 78.65 78.65 0 0 0 1010.109 197.132 A 65.716 65.716 0 0 0 1065.001 226.501 C 1083.998 226.501 1096.831 218.193 1104.008 209.177 A 40.303 40.303 0 0 0 1105.201 207.601 A 6.815 6.815 0 0 1 1105.841 206.902 C 1108.149 204.723 1110.927 205.46 1111.201 208.201 Z M 10.201 48.601 L 49.501 48.601 C 52.201 48.601 54.601 51.001 54.601 53.701 L 54.601 211.501 A 10.592 10.592 0 0 0 56.85 218.16 C 58.592 220.349 61.223 221.766 64.307 221.974 A 11.787 11.787 0 0 0 65.101 222.001 L 87.901 222.001 A 10.105 10.105 0 0 0 97.983 213.155 A 11.607 11.607 0 0 0 98.101 211.501 L 98.101 53.701 C 98.101 51.001 100.501 48.601 103.501 48.601 L 142.501 48.601 A 10.432 10.432 0 0 0 152.995 38.451 A 11.177 11.177 0 0 0 153.001 38.101 L 153.001 17.701 C 153.001 12.001 148.201 7.501 142.501 7.501 L 10.201 7.501 A 10.108 10.108 0 0 0 0.021 17.039 A 10.725 10.725 0 0 0 0.001 17.701 L 0.001 38.101 A 10.752 10.752 0 0 0 2.044 44.52 A 10.021 10.021 0 0 0 10.201 48.601 Z M 756.901 288.001 L 777.001 288.001 A 11.219 11.219 0 0 0 787.484 281.269 A 12.925 12.925 0 0 0 787.801 280.501 L 861.901 95.101 C 864.001 88.801 860.701 83.101 853.501 83.101 L 835.501 83.101 C 830.401 83.101 825.901 86.401 824.401 91.201 L 800.401 155.401 A 3.866 3.866 0 0 1 799.523 156.81 C 797.751 158.603 794.494 158.134 793.501 155.401 L 770.401 91.501 A 13.265 13.265 0 0 0 766.615 85.816 A 11.071 11.071 0 0 0 759.301 83.101 L 736.801 83.101 A 11.001 11.001 0 0 0 733.039 83.716 C 729.025 85.172 727.19 89.039 728.196 93.444 A 12.416 12.416 0 0 0 728.701 95.101 L 774.601 210.601 A 13.013 13.013 0 0 1 775.239 213.685 C 775.369 215.324 775.156 216.92 774.601 218.401 L 750.001 277.801 C 747.901 282.901 750.601 288.001 756.901 288.001 Z M 1470.301 97.201 L 1470.001 91.201 C 1469.101 86.401 1464.901 83.101 1460.101 83.101 L 1445.101 83.101 C 1439.401 83.101 1434.901 87.901 1434.901 93.601 L 1434.901 277.801 A 10.108 10.108 0 0 0 1444.438 287.98 A 10.725 10.725 0 0 0 1445.101 288.001 L 1463.401 288.001 C 1469.101 288.001 1473.901 283.501 1473.901 277.801 L 1473.901 216.001 A 4.469 4.469 0 0 1 1474.234 214.252 C 1475.125 212.145 1477.652 211.438 1479.973 212.922 A 6.134 6.134 0 0 1 1480.501 213.301 A 50.259 50.259 0 0 0 1500.891 224.46 A 58.306 58.306 0 0 0 1516.501 226.501 A 68.244 68.244 0 0 0 1583.022 170.465 A 83.73 83.73 0 0 0 1584.901 152.701 A 79.252 79.252 0 0 0 1572.151 108.747 A 65.966 65.966 0 0 0 1516.501 78.601 A 55.92 55.92 0 0 0 1502.376 80.342 C 1490.133 83.526 1481.646 90.596 1476.301 97.501 A 8.065 8.065 0 0 1 1475.763 98.165 C 1473.473 100.7 1470.857 99.98 1470.301 97.201 Z M 448.801 181.801 L 437.401 175.801 A 18.13 18.13 0 0 0 434.649 174.572 C 429.783 172.889 425.499 174.067 422.069 177.288 A 17.188 17.188 0 0 0 420.901 178.501 A 34.25 34.25 0 0 1 406.178 187.966 C 402.376 189.214 398.171 189.901 393.601 189.901 A 35.812 35.812 0 0 1 373.454 183.907 A 33.833 33.833 0 0 1 359.401 163.501 C 358.801 161.401 360.001 159.601 362.101 159.601 L 454.501 159.601 C 461.101 159.601 466.501 155.101 466.501 148.501 A 69.934 69.934 0 0 0 407.209 79.788 A 80.962 80.962 0 0 0 393.301 78.601 A 75.167 75.167 0 0 0 343.321 96.961 A 73.045 73.045 0 0 0 318.601 152.401 A 73.217 73.217 0 0 0 383.635 225.889 A 80.882 80.882 0 0 0 393.601 226.501 A 76.126 76.126 0 0 0 426.046 219.532 A 72.625 72.625 0 0 0 453.001 197.701 A 13.384 13.384 0 0 0 454.673 194.645 C 456.222 190.58 455.267 186.267 450.94 183.116 A 16.773 16.773 0 0 0 448.801 181.801 Z M 596.401 222.001 L 651.901 222.001 A 78.442 78.442 0 0 0 681.174 216.698 A 55.709 55.709 0 0 0 717.301 163.501 C 717.301 142.801 706.801 125.101 688.801 114.901 A 7.882 7.882 0 0 1 687.542 113.921 C 685.737 112.171 685.671 110.039 687.597 108.158 A 8.152 8.152 0 0 1 688.501 107.401 C 702.901 97.501 711.301 81.001 711.301 63.301 A 54.402 54.402 0 0 0 670.121 9.678 A 67.555 67.555 0 0 0 652.801 7.501 L 596.401 7.501 A 10.752 10.752 0 0 0 589.982 9.544 A 10.021 10.021 0 0 0 585.901 17.701 L 585.901 211.501 A 10.592 10.592 0 0 0 588.15 218.16 C 589.892 220.349 592.523 221.766 595.607 221.974 A 11.787 11.787 0 0 0 596.401 222.001 Z M 1799.101 222.001 L 1817.401 222.001 A 10.432 10.432 0 0 0 1827.895 211.851 A 11.177 11.177 0 0 0 1827.901 211.501 L 1827.901 124.501 A 6.67 6.67 0 0 1 1828.182 122.485 C 1828.632 121.066 1829.624 120.134 1831.156 119.819 A 6.181 6.181 0 0 1 1832.401 119.701 L 1848.001 119.701 C 1854.001 119.701 1857.901 115.801 1857.901 110.101 L 1857.901 93.001 A 11.095 11.095 0 0 0 1856.917 88.259 C 1855.672 85.609 1853.309 83.836 1850.171 83.284 A 12.525 12.525 0 0 0 1848.001 83.101 L 1832.401 83.101 C 1830.02 83.101 1828.584 82.156 1828.092 80.267 A 6.63 6.63 0 0 1 1827.901 78.601 L 1827.901 27.601 C 1827.901 21.901 1823.101 17.101 1817.401 17.101 L 1799.101 17.101 C 1793.401 17.101 1788.901 21.901 1788.901 27.601 L 1788.901 78.601 C 1788.901 81.06 1787.691 82.511 1785.603 82.954 A 7.244 7.244 0 0 1 1784.101 83.101 L 1774.501 83.101 A 10.148 10.148 0 0 0 1769.451 84.349 C 1766.623 85.954 1764.901 89.013 1764.901 93.001 L 1764.901 110.101 C 1764.901 115.172 1767.988 118.819 1772.684 119.561 A 11.63 11.63 0 0 0 1774.501 119.701 L 1784.101 119.701 A 5.781 5.781 0 0 1 1786.226 120.071 C 1787.93 120.742 1788.901 122.298 1788.901 124.501 L 1788.901 211.501 A 10.752 10.752 0 0 0 1790.944 217.92 A 10.021 10.021 0 0 0 1799.101 222.001 Z M 893.101 222.001 L 911.401 222.001 A 10.432 10.432 0 0 0 921.895 211.851 A 11.177 11.177 0 0 0 921.901 211.501 L 921.901 136.201 A 12.135 12.135 0 0 1 922.656 131.813 A 11.081 11.081 0 0 1 923.101 130.801 A 86.085 86.085 0 0 1 925.287 126.952 C 928.356 121.877 931.226 118.583 934.23 116.632 A 14.273 14.273 0 0 1 942.301 114.301 A 15.555 15.555 0 0 1 948.411 115.468 A 14.668 14.668 0 0 1 954.001 119.701 C 956.932 124.231 960.81 126.157 965.425 125.06 A 13.567 13.567 0 0 0 967.201 124.501 L 985.501 118.201 A 10.975 10.975 0 0 0 989.237 115.844 C 991.486 113.638 992.382 110.557 991.49 107.252 A 11.348 11.348 0 0 0 990.901 105.601 A 53.594 53.594 0 0 0 982.923 91.761 A 33.467 33.467 0 0 0 956.401 78.601 A 42.663 42.663 0 0 0 947.411 79.483 C 937.06 81.707 930.909 87.963 924.001 96.301 C 921.601 99.301 918.601 98.701 918.301 96.001 L 918.301 92.401 A 10.569 10.569 0 0 0 915.168 85.882 A 10.086 10.086 0 0 0 908.101 83.101 L 893.101 83.101 C 887.401 83.101 882.901 87.901 882.901 93.601 L 882.901 211.501 A 10.752 10.752 0 0 0 884.944 217.92 A 10.021 10.021 0 0 0 893.101 222.001 Z M 1677.301 226.501 A 75.555 75.555 0 0 0 1728.407 207.257 A 72.939 72.939 0 0 0 1752.301 152.701 A 73.217 73.217 0 0 0 1687.266 79.212 A 80.882 80.882 0 0 0 1677.301 78.601 A 75.396 75.396 0 0 0 1625.866 98.176 A 73.344 73.344 0 0 0 1602.301 152.701 C 1602.301 194.101 1635.001 226.501 1677.301 226.501 Z M 1046.708 178.69 A 35.856 35.856 0 0 0 1071.901 188.701 A 38.41 38.41 0 0 0 1076.129 188.469 A 35.478 35.478 0 0 0 1107.901 152.701 C 1107.901 132.301 1092.301 116.401 1071.901 116.401 A 35.698 35.698 0 0 0 1046.175 126.977 A 36.386 36.386 0 0 0 1035.901 152.701 A 35.92 35.92 0 0 0 1046.708 178.69 Z M 1652.108 178.69 A 35.856 35.856 0 0 0 1677.301 188.701 A 38.41 38.41 0 0 0 1681.529 188.469 A 35.478 35.478 0 0 0 1713.301 152.701 C 1713.301 132.301 1697.701 116.401 1677.301 116.401 A 35.698 35.698 0 0 0 1651.575 126.977 A 36.386 36.386 0 0 0 1641.301 152.701 A 35.92 35.92 0 0 0 1652.108 178.69 Z M 1509.901 116.401 C 1530.001 116.401 1545.901 132.301 1545.901 152.701 A 35.704 35.704 0 0 1 1511.772 188.655 A 37.821 37.821 0 0 1 1509.901 188.701 A 35.856 35.856 0 0 1 1484.708 178.69 A 35.92 35.92 0 0 1 1473.901 152.701 A 36.386 36.386 0 0 1 1484.175 126.977 A 35.698 35.698 0 0 1 1509.901 116.401 Z M 629.401 181.201 L 629.401 134.701 C 629.401 131.701 631.801 129.301 634.801 129.301 L 643.501 129.301 C 661.959 129.301 673.118 139.47 674.545 154.459 A 35.26 35.26 0 0 1 674.701 157.801 A 30.055 30.055 0 0 1 670.784 173.26 C 665.874 181.56 656.497 186.601 643.501 186.601 L 634.801 186.601 C 631.801 186.601 629.401 184.201 629.401 181.201 Z M 629.401 89.701 L 629.401 48.301 C 629.401 45.301 631.801 42.901 634.801 42.901 L 640.501 42.901 A 35.687 35.687 0 0 1 652.172 44.712 C 662.843 48.396 668.701 57.406 668.701 69.001 A 26.964 26.964 0 0 1 664.777 83.592 C 661.884 88.16 657.438 91.598 651.603 93.48 A 36.116 36.116 0 0 1 640.501 95.101 L 634.801 95.101 C 631.554 95.101 629.469 92.778 629.402 89.847 A 6.388 6.388 0 0 1 629.401 89.701 Z M 420.901 133.501 L 365.401 133.501 A 3.776 3.776 0 0 1 364.039 133.263 C 362.333 132.606 361.727 130.705 362.701 129.001 A 32.584 32.584 0 0 1 388.576 110.382 A 39.059 39.059 0 0 1 393.301 110.101 A 36.693 36.693 0 0 1 406.583 112.421 A 30.522 30.522 0 0 1 423.601 129.001 C 424.801 131.101 423.601 133.501 420.901 133.501 Z" vector-effect="non-scaling-stroke"/></g></svg>